<mxfile host="www.draw.io" modified="2020-03-04T04:04:14.069Z" agent="Mozilla/5.0 (Macintosh; Intel Mac OS X 10_14_0) AppleWebKit/537.36 (KHTML, like Gecko) Chrome/79.0.3945.130 Safari/537.36" etag="RmGWZvmNcHKV1SaHkShd" version="12.7.9" type="github">
  <diagram id="E4djUkXJgHmOQ1qHG0AQ" name="Page-1">
    <mxGraphModel dx="786" dy="411" grid="1" gridSize="10" guides="1" tooltips="1" connect="1" arrows="1" fold="1" page="1" pageScale="1" pageWidth="850" pageHeight="1100" math="0" shadow="0">
      <root>
        <mxCell id="0" />
        <mxCell id="1" parent="0" />
        <mxCell id="4UQcf1Sv0_18LDurUM1L-3" value="" style="rounded=0;whiteSpace=wrap;html=1;fillColor=#d5e8d4;strokeColor=#82b366;rotation=-45;" vertex="1" parent="1">
          <mxGeometry x="140" y="150" width="120" height="60" as="geometry" />
        </mxCell>
        <mxCell id="4UQcf1Sv0_18LDurUM1L-1" value="" style="endArrow=classic;html=1;" edge="1" parent="1">
          <mxGeometry width="50" height="50" relative="1" as="geometry">
            <mxPoint x="200" y="180" as="sourcePoint" />
            <mxPoint x="200" y="60" as="targetPoint" />
          </mxGeometry>
        </mxCell>
        <mxCell id="4UQcf1Sv0_18LDurUM1L-4" value="N" style="text;html=1;align=center;verticalAlign=middle;resizable=0;points=[];labelBackgroundColor=#ffffff;" vertex="1" connectable="0" parent="4UQcf1Sv0_18LDurUM1L-1">
          <mxGeometry x="0.5167" y="2" relative="1" as="geometry">
            <mxPoint as="offset" />
          </mxGeometry>
        </mxCell>
        <mxCell id="4UQcf1Sv0_18LDurUM1L-2" value="" style="endArrow=classic;html=1;" edge="1" parent="1">
          <mxGeometry width="50" height="50" relative="1" as="geometry">
            <mxPoint x="200" y="180" as="sourcePoint" />
            <mxPoint x="310" y="180" as="targetPoint" />
          </mxGeometry>
        </mxCell>
        <mxCell id="4UQcf1Sv0_18LDurUM1L-5" value="E" style="text;html=1;align=center;verticalAlign=middle;resizable=0;points=[];labelBackgroundColor=#ffffff;" vertex="1" connectable="0" parent="4UQcf1Sv0_18LDurUM1L-2">
          <mxGeometry x="0.3286" y="3" relative="1" as="geometry">
            <mxPoint as="offset" />
          </mxGeometry>
        </mxCell>
        <mxCell id="4UQcf1Sv0_18LDurUM1L-6" value="" style="endArrow=classic;html=1;fillColor=#ffe6cc;strokeColor=#d79b00;" edge="1" parent="1">
          <mxGeometry width="50" height="50" relative="1" as="geometry">
            <mxPoint x="200" y="180" as="sourcePoint" />
            <mxPoint x="250" y="130" as="targetPoint" />
          </mxGeometry>
        </mxCell>
        <mxCell id="4UQcf1Sv0_18LDurUM1L-7" value="Y" style="text;html=1;align=center;verticalAlign=middle;resizable=0;points=[];labelBackgroundColor=#ffffff;" vertex="1" connectable="0" parent="4UQcf1Sv0_18LDurUM1L-6">
          <mxGeometry x="0.5167" y="2" relative="1" as="geometry">
            <mxPoint x="-6.77" y="9.600000000000001" as="offset" />
          </mxGeometry>
        </mxCell>
        <mxCell id="4UQcf1Sv0_18LDurUM1L-8" value="" style="endArrow=classic;html=1;fillColor=#ffe6cc;strokeColor=#d79b00;" edge="1" parent="1">
          <mxGeometry width="50" height="50" relative="1" as="geometry">
            <mxPoint x="200" y="180" as="sourcePoint" />
            <mxPoint x="240" y="220" as="targetPoint" />
          </mxGeometry>
        </mxCell>
        <mxCell id="4UQcf1Sv0_18LDurUM1L-9" value="X" style="text;html=1;align=center;verticalAlign=middle;resizable=0;points=[];labelBackgroundColor=#ffffff;" vertex="1" connectable="0" parent="4UQcf1Sv0_18LDurUM1L-8">
          <mxGeometry x="0.3286" y="3" relative="1" as="geometry">
            <mxPoint x="-8.99" y="-4.75" as="offset" />
          </mxGeometry>
        </mxCell>
        <mxCell id="4UQcf1Sv0_18LDurUM1L-13" value="" style="endArrow=classic;html=1;" edge="1" parent="1">
          <mxGeometry width="50" height="50" relative="1" as="geometry">
            <mxPoint x="200" y="180" as="sourcePoint" />
            <mxPoint x="120" y="120" as="targetPoint" />
          </mxGeometry>
        </mxCell>
        <mxCell id="4UQcf1Sv0_18LDurUM1L-14" value="U" style="text;html=1;align=center;verticalAlign=middle;resizable=0;points=[];labelBackgroundColor=#ffffff;" vertex="1" connectable="0" parent="4UQcf1Sv0_18LDurUM1L-13">
          <mxGeometry x="0.5167" y="2" relative="1" as="geometry">
            <mxPoint as="offset" />
          </mxGeometry>
        </mxCell>
        <mxCell id="4UQcf1Sv0_18LDurUM1L-15" value="" style="endArrow=classic;html=1;fillColor=#ffe6cc;strokeColor=#d79b00;" edge="1" parent="1">
          <mxGeometry width="50" height="50" relative="1" as="geometry">
            <mxPoint x="200" y="180" as="sourcePoint" />
            <mxPoint x="170" y="130" as="targetPoint" />
          </mxGeometry>
        </mxCell>
        <mxCell id="4UQcf1Sv0_18LDurUM1L-16" value="Z" style="text;html=1;align=center;verticalAlign=middle;resizable=0;points=[];labelBackgroundColor=#ffffff;" vertex="1" connectable="0" parent="4UQcf1Sv0_18LDurUM1L-15">
          <mxGeometry x="0.5167" y="2" relative="1" as="geometry">
            <mxPoint x="11.82" y="9.600000000000001" as="offset" />
          </mxGeometry>
        </mxCell>
      </root>
    </mxGraphModel>
  </diagram>
</mxfile>
